<svg width="43" height="62" viewBox="0 0 43 62" fill="none" xmlns="http://www.w3.org/2000/svg">
<path d="M5.71552 58.499C5.64319 58.499 5.57085 58.4728 5.5132 58.4193C4.65781 57.6153 4.00054 56.6079 3.61268 55.5062C3.5718 55.3909 3.60639 55.264 3.69864 55.1843C4.29196 54.677 4.78989 54.0732 5.1788 53.3887C5.28048 53.2084 5.37064 53.0322 5.44612 52.8677C5.49434 52.7628 5.59811 52.6958 5.71342 52.6947C5.71342 52.6947 5.71342 52.6947 5.71447 52.6947C5.82978 52.6947 5.93356 52.7618 5.98178 52.8666C6.05935 53.0343 6.14741 53.2063 6.25119 53.3897C6.6401 54.0732 7.13802 54.677 7.73135 55.1843C7.82359 55.264 7.85819 55.3919 7.8173 55.5062C7.4284 56.6079 6.77113 57.6153 5.91679 58.4193C5.86018 58.4728 5.78785 58.499 5.71552 58.499ZM4.23746 55.4957C4.56661 56.349 5.07293 57.1352 5.71552 57.7924C6.35706 57.1362 6.86338 56.35 7.19358 55.4967C6.61703 54.9747 6.12749 54.3646 5.73858 53.6811C5.73019 53.6675 5.72286 53.6528 5.71447 53.6392C5.70713 53.6528 5.69875 53.6665 5.69141 53.6801C5.3025 54.3625 4.814 54.9726 4.23746 55.4957Z" fill="#FAECD6"/>
<path d="M38.1021 58.4693C38.0298 58.4693 37.9575 58.4431 37.8998 58.3896C37.0444 57.5856 36.3871 56.5782 35.9993 55.4765C35.9584 55.3612 35.993 55.2344 36.0852 55.1547C36.6786 54.6473 37.1765 54.0435 37.5654 53.359C37.6671 53.1787 37.7572 53.0026 37.8327 52.838C37.8809 52.7332 37.9847 52.6661 38.1 52.665C38.1 52.665 38.1 52.665 38.1011 52.665C38.2164 52.665 38.3202 52.7321 38.3684 52.837C38.4459 53.0047 38.534 53.1766 38.6378 53.36C39.0267 54.0435 39.5246 54.6473 40.1179 55.1547C40.2102 55.2344 40.2448 55.3622 40.2039 55.4765C39.815 56.5782 39.1577 57.5856 38.3034 58.3896C38.2468 58.4431 38.1744 58.4693 38.1021 58.4693ZM36.6241 55.466C36.9532 56.3193 37.4595 57.1055 38.1021 57.7628C38.7437 57.1066 39.25 56.3204 39.5802 55.4671C39.0036 54.945 38.5141 54.3349 38.1252 53.6515C38.1168 53.6378 38.1095 53.6232 38.1011 53.6095C38.0937 53.6232 38.0853 53.6368 38.078 53.6504C37.6891 54.3328 37.2006 54.9429 36.6241 55.466Z" fill="#FAECD6"/>
<rect x="8.62688" y="8.40581" width="26.0536" height="1.57415" stroke="#FAECD6" stroke-width="0.4"/>
<path d="M24.5072 8.37017C24.5071 3.81399 19.1833 3.65605 19.1832 8.37016Z" fill="#FAECD6"/>
<path d="M24.5072 8.37017C24.5071 3.81399 19.1833 3.65605 19.1832 8.37016" stroke="#FAECD6" stroke-width="0.4"/>
<line x1="10.0652" y1="10.3423" x2="10.0652" y2="34.0321" stroke="#FAECD6" stroke-width="0.4"/>
<path d="M33.6586 10.1708V33.9572" stroke="#FAECD6" stroke-width="0.4"/>
<rect x="0.326653" width="4.56517" height="4.59463" transform="matrix(0.816634 -0.577156 0.816634 0.577156 17.8214 16.2392)" fill="#FAECD6" stroke="#FAECD6" stroke-width="0.4"/>
<line x1="17.9615" y1="16.0557" x2="17.9615" y2="19.2749" stroke="#FAECD6" stroke-width="0.4"/>
<line x1="25.8542" y1="16.0557" x2="25.8542" y2="19.2749" stroke="#FAECD6" stroke-width="0.4"/>
<line y1="-0.2" x2="3.22146" y2="-0.2" transform="matrix(0.0365684 0.999331 -0.999833 0.0182749 21.6884 18.692)" stroke="#FAECD6" stroke-width="0.4"/>
<line y1="-0.2" x2="4.82787" y2="-0.2" transform="matrix(0.837732 0.546082 -0.79376 0.608231 17.7615 19.275)" stroke="#FAECD6" stroke-width="0.4"/>
<line x1="21.9139" y1="21.7454" x2="25.7833" y2="19.1395" stroke="#FAECD6" stroke-width="0.4"/>
<rect x="0.326653" width="4.56517" height="4.59463" transform="matrix(0.816634 -0.577156 0.816634 0.577156 9.92477 16.2393)" fill="#FAECD6" stroke="#FAECD6" stroke-width="0.4"/>
<line x1="10.0649" y1="16.0558" x2="10.0649" y2="19.275" stroke="#FAECD6" stroke-width="0.4"/>
<line x1="17.9576" y1="16.0558" x2="17.9576" y2="19.275" stroke="#FAECD6" stroke-width="0.4"/>
<line y1="-0.2" x2="3.22146" y2="-0.2" transform="matrix(0.0365684 0.999331 -0.999833 0.0182749 13.7917 18.692)" stroke="#FAECD6" stroke-width="0.4"/>
<line y1="-0.2" x2="4.82787" y2="-0.2" transform="matrix(0.837732 0.546082 -0.79376 0.608231 9.86487 19.275)" stroke="#FAECD6" stroke-width="0.4"/>
<line x1="14.0176" y1="21.7455" x2="17.8869" y2="19.1396" stroke="#FAECD6" stroke-width="0.4"/>
<rect x="0.326653" width="4.56517" height="4.59463" transform="matrix(0.816634 -0.577156 0.816634 0.577156 25.7185 16.2392)" fill="#FAECD6" stroke="#FAECD6" stroke-width="0.4"/>
<line x1="25.8586" y1="16.0555" x2="25.8586" y2="19.2747" stroke="#FAECD6" stroke-width="0.4"/>
<line x1="33.7511" y1="16.0555" x2="33.7511" y2="19.2747" stroke="#FAECD6" stroke-width="0.4"/>
<line y1="-0.2" x2="3.22146" y2="-0.2" transform="matrix(0.0365684 0.999331 -0.999833 0.0182749 29.5852 18.692)" stroke="#FAECD6" stroke-width="0.4"/>
<line y1="-0.2" x2="4.82787" y2="-0.2" transform="matrix(0.837732 0.546082 -0.79376 0.608231 25.6583 19.275)" stroke="#FAECD6" stroke-width="0.4"/>
<line x1="29.811" y1="21.7455" x2="33.6803" y2="19.1396" stroke="#FAECD6" stroke-width="0.4"/>
<line y1="-0.2" x2="5.05383" y2="-0.2" transform="matrix(0.837732 0.546082 -0.79376 0.608231 25.6581 22.661)" stroke="#FAECD6" stroke-width="0.4"/>
<line x1="29.8316" y1="25.2475" x2="33.6529" y2="22.5718" stroke="#FAECD6" stroke-width="0.4"/>
<line y1="-0.2" x2="5.05383" y2="-0.2" transform="matrix(0.837732 0.546082 -0.79376 0.608231 17.7614 22.661)" stroke="#FAECD6" stroke-width="0.4"/>
<line x1="21.9138" y1="25.2106" x2="25.7831" y2="22.6047" stroke="#FAECD6" stroke-width="0.4"/>
<line y1="-0.2" x2="4.97486" y2="-0.2" transform="matrix(0.837732 0.546082 -0.79376 0.608231 9.86475 22.74)" stroke="#FAECD6" stroke-width="0.4"/>
<line x1="14.0174" y1="25.2106" x2="17.8868" y2="22.6047" stroke="#FAECD6" stroke-width="0.4"/>
<line y1="-0.2" x2="5.05383" y2="-0.2" transform="matrix(0.837732 0.546082 -0.79376 0.608231 25.6581 24.3192)" stroke="#FAECD6" stroke-width="0.4"/>
<line x1="29.8105" y1="26.8687" x2="33.6799" y2="24.2628" stroke="#FAECD6" stroke-width="0.4"/>
<line y1="-0.2" x2="5.05383" y2="-0.2" transform="matrix(0.837732 0.546082 -0.79376 0.608231 17.7614 24.3192)" stroke="#FAECD6" stroke-width="0.4"/>
<line x1="21.9138" y1="26.8687" x2="25.7831" y2="24.2628" stroke="#FAECD6" stroke-width="0.4"/>
<line y1="-0.2" x2="4.97486" y2="-0.2" transform="matrix(0.837732 0.546082 -0.79376 0.608231 9.86475 24.3982)" stroke="#FAECD6" stroke-width="0.4"/>
<line x1="14.0172" y1="26.8689" x2="17.8865" y2="24.263" stroke="#FAECD6" stroke-width="0.4"/>
<line x1="13.974" y1="10.1056" x2="13.974" y2="13.5011" stroke="#FAECD6" stroke-width="0.4"/>
<line x1="21.9101" y1="10.1056" x2="21.9101" y2="13.5011" stroke="#FAECD6" stroke-width="0.4"/>
<line x1="29.8068" y1="10.1056" x2="29.8068" y2="13.5011" stroke="#FAECD6" stroke-width="0.4"/>
<line x1="9.98574" y1="33.8725" x2="21.9096" y2="42.8746" stroke="#FAECD6" stroke-width="0.4"/>
<line x1="33.7864" y1="33.9548" x2="21.7516" y2="43.0457" stroke="#FAECD6" stroke-width="0.4"/>
<line x1="12.513" y1="25.8986" x2="12.513" y2="44.8504" stroke="#FAECD6" stroke-width="0.4"/>
<line x1="11.1706" y1="25.03" x2="11.1706" y2="47.9302" stroke="#FAECD6" stroke-width="0.4"/>
<line x1="14.0136" y1="26.925" x2="14.0136" y2="41.06" stroke="#FAECD6" stroke-width="0.4"/>
<line x1="28.4644" y1="25.9778" x2="28.4644" y2="44.9296" stroke="#FAECD6" stroke-width="0.4"/>
<line x1="27.1219" y1="25.1091" x2="27.1219" y2="48.0093" stroke="#FAECD6" stroke-width="0.4"/>
<line x1="29.9251" y1="26.925" x2="29.9251" y2="41.06" stroke="#FAECD6" stroke-width="0.4"/>
<line x1="20.6465" y1="26.0566" x2="20.6465" y2="45.0085" stroke="#FAECD6" stroke-width="0.4"/>
<line x1="19.3832" y1="25.1248" x2="19.3832" y2="48.0249" stroke="#FAECD6" stroke-width="0.4"/>
<line x1="22.0679" y1="26.925" x2="22.0679" y2="41.06" stroke="#FAECD6" stroke-width="0.4"/>
<line x1="22.0679" y1="26.925" x2="22.0679" y2="58.5115" stroke="#FAECD6" stroke-width="0.4"/>
<line x1="15.4349" y1="26.0566" x2="15.4349" y2="54.3265" stroke="#FAECD6" stroke-width="0.4"/>
<line x1="15.4349" y1="26.0566" x2="15.4349" y2="54.3265" stroke="#FAECD6" stroke-width="0.4"/>
<line x1="15.4349" y1="26.0566" x2="15.4349" y2="54.3265" stroke="#FAECD6" stroke-width="0.4"/>
<line x1="15.4349" y1="26.0566" x2="15.4349" y2="54.3265" stroke="#FAECD6" stroke-width="0.4"/>
<line x1="15.4349" y1="26.0566" x2="15.4349" y2="54.3265" stroke="#FAECD6" stroke-width="0.4"/>
<line x1="18.0409" y1="24.3193" x2="18.0409" y2="52.5892" stroke="#FAECD6" stroke-width="0.4"/>
<line x1="18.0409" y1="24.3193" x2="18.0409" y2="52.5892" stroke="#FAECD6" stroke-width="0.4"/>
<line x1="18.0409" y1="24.3193" x2="18.0409" y2="52.5892" stroke="#FAECD6" stroke-width="0.4"/>
<line x1="18.0409" y1="24.3193" x2="18.0409" y2="52.5892" stroke="#FAECD6" stroke-width="0.4"/>
<line x1="18.0409" y1="24.3193" x2="18.0409" y2="52.5892" stroke="#FAECD6" stroke-width="0.4"/>
<line x1="16.7773" y1="25.1091" x2="16.7773" y2="53.379" stroke="#FAECD6" stroke-width="0.4"/>
<line x1="16.7773" y1="25.1091" x2="16.7773" y2="53.379" stroke="#FAECD6" stroke-width="0.4"/>
<line x1="16.7773" y1="25.1091" x2="16.7773" y2="53.379" stroke="#FAECD6" stroke-width="0.4"/>
<line x1="16.7773" y1="25.1091" x2="16.7773" y2="53.379" stroke="#FAECD6" stroke-width="0.4"/>
<line x1="16.7773" y1="25.1091" x2="16.7773" y2="53.379" stroke="#FAECD6" stroke-width="0.4"/>
<line x1="31.149" y1="26.1355" x2="31.149" y2="49.8253" stroke="#FAECD6" stroke-width="0.4"/>
<line x1="31.149" y1="26.1355" x2="31.149" y2="49.8253" stroke="#FAECD6" stroke-width="0.4"/>
<line x1="31.149" y1="26.1355" x2="31.149" y2="49.8253" stroke="#FAECD6" stroke-width="0.4"/>
<line x1="31.149" y1="26.1355" x2="31.149" y2="49.8253" stroke="#FAECD6" stroke-width="0.4"/>
<line x1="31.149" y1="26.1355" x2="31.149" y2="49.8253" stroke="#FAECD6" stroke-width="0.4"/>
<line x1="32.4134" y1="25.3735" x2="32.4134" y2="48.2737" stroke="#FAECD6" stroke-width="0.4"/>
<line x1="32.4134" y1="25.3735" x2="32.4134" y2="48.2737" stroke="#FAECD6" stroke-width="0.4"/>
<line x1="32.4134" y1="25.3735" x2="32.4134" y2="48.2737" stroke="#FAECD6" stroke-width="0.4"/>
<line x1="32.4134" y1="25.3735" x2="32.4134" y2="48.2737" stroke="#FAECD6" stroke-width="0.4"/>
<line x1="32.4134" y1="25.3735" x2="32.4134" y2="48.2737" stroke="#FAECD6" stroke-width="0.4"/>
<line x1="23.3315" y1="26.1355" x2="23.3315" y2="54.4054" stroke="#FAECD6" stroke-width="0.4"/>
<line x1="23.3315" y1="26.1355" x2="23.3315" y2="54.4054" stroke="#FAECD6" stroke-width="0.4"/>
<line x1="23.3315" y1="26.1355" x2="23.3315" y2="54.4054" stroke="#FAECD6" stroke-width="0.4"/>
<line x1="23.3315" y1="26.1355" x2="23.3315" y2="54.4054" stroke="#FAECD6" stroke-width="0.4"/>
<line x1="23.3315" y1="26.1355" x2="23.3315" y2="54.4054" stroke="#FAECD6" stroke-width="0.4"/>
<line x1="25.9374" y1="24.3983" x2="25.9374" y2="52.6682" stroke="#FAECD6" stroke-width="0.4"/>
<line x1="25.9374" y1="24.3983" x2="25.9374" y2="52.6682" stroke="#FAECD6" stroke-width="0.4"/>
<line x1="25.9374" y1="24.3983" x2="25.9374" y2="52.6682" stroke="#FAECD6" stroke-width="0.4"/>
<line x1="25.9374" y1="24.3983" x2="25.9374" y2="52.6682" stroke="#FAECD6" stroke-width="0.4"/>
<line x1="25.9374" y1="24.3983" x2="25.9374" y2="52.6682" stroke="#FAECD6" stroke-width="0.4"/>
<line x1="24.6739" y1="25.837" x2="24.6739" y2="54.1069" stroke="#FAECD6" stroke-width="0.4"/>
<line x1="24.6739" y1="25.837" x2="24.6739" y2="54.1069" stroke="#FAECD6" stroke-width="0.4"/>
<line x1="24.6739" y1="25.837" x2="24.6739" y2="54.1069" stroke="#FAECD6" stroke-width="0.4"/>
<line x1="24.6739" y1="25.837" x2="24.6739" y2="54.1069" stroke="#FAECD6" stroke-width="0.4"/>
<line x1="24.6739" y1="25.837" x2="24.6739" y2="54.1069" stroke="#FAECD6" stroke-width="0.4"/>
<circle cx="11.0891" cy="48.8383" r="0.90811" fill="#FAECD6"/>
<circle cx="15.3534" cy="48.8383" r="0.70811" stroke="#FAECD6" stroke-width="0.4"/>
<circle cx="21.9864" cy="50.7334" r="0.70811" stroke="#FAECD6" stroke-width="0.4"/>
<circle cx="28.3828" cy="43.6266" r="0.70811" stroke="#FAECD6" stroke-width="0.4"/>
<circle cx="32.3311" cy="48.0487" r="0.90811" fill="#FAECD6"/>
<line x1="1" y1="61" x2="42.5319" y2="61" stroke="#FAECD6" stroke-width="2"/>
<path d="M1.66992 62L1.66992 17.0254" stroke="#FAECD6" stroke-width="2"/>
<path d="M41.8621 62L41.8621 17.012" stroke="#FAECD6" stroke-width="2"/>
<path d="M1.66992 17.1624C1.66992 17.1624 2.00195 1.00005 22.5874 1C43.1728 0.999951 41.8447 17.1624 41.8447 17.1624" stroke="#FAECD6" stroke-width="2"/>
</svg>
